<?xml version="1.0" encoding="utf-8"?>
<!-- Generator: Adobe Illustrator 19.2.1, SVG Export Plug-In . SVG Version: 6.00 Build 0)  -->
<svg version="1.1" id="Layer_1" xmlns="http://www.w3.org/2000/svg" xmlns:xlink="http://www.w3.org/1999/xlink" x="0px" y="0px"
	 viewBox="0 0 1612 602.8" style="enable-background:new 0 0 1612 602.8;" xml:space="preserve">
<style type="text/css">
	.st0{fill:#FFFFFF;}
</style>
<path class="st0" d="M214.5,74.7c0.3,0.6,1,1,1.7,1l0,0c0.5,0,0.9-0.2,1.3-0.5l0.1-0.1c3.1-2.6,5.9-5.2,8.6-8
	c25.7-27.5,10.6-61.4,10.4-61.7c-0.8-1.6-0.2-3.6,1.2-4.7c1.5-1.1,3.5-1,4.8,0.3c86.9,80,63.9,140.9,62.2,145
	c-7,24.9-34.8,42.8-67.6,43.7c-0.9,0-1.7,0-2.6,0c-38.8,0-70.3-23.6-71.8-53.8v0l0-0.4c0,0,0,0,0,0c-1.6-41.9,38.3-83.2,40-85
	c1.1-1.1,2.8-1.4,4.2-0.8c1.4,0.6,2.4,2.1,2.3,3.6C209.2,61.5,210.8,68.7,214.5,74.7L214.5,74.7z M110.8,494.8
	c-11.6-10.4-17.4-28.4-17.4-54V311.4h65.9v-83.2H93.5v-93.1H0v304.9c0,25.1,3.5,47.7,10.6,67.9c7.1,20.1,17.5,37.1,31.2,50.8
	c13.7,13.8,30.7,23.7,51,29.8c20.3,6.2,43.9,7.8,70.8,5v-85.3C140,509.7,122.4,505.2,110.8,494.8z M282.4,228.2h-93.5v366.1h93.5
	V228.2z M599.3,264.8c-13.9-14.4-30.9-25.7-51-33.8C528.3,223,505.5,219,480,219c-25,0-47.6,4.2-67.6,12.4
	c-20.1,8.3-37.3,19.8-51.7,34.5c-14.4,14.7-25.5,32-33.3,51.9c-7.8,19.9-11.7,41.5-11.7,64.7v211.8h93.5v-214
	c0-20.8,6.6-37.7,19.8-50.5c13.2-12.8,30.2-19.2,51-19.2c15.6,0,27.9,2.6,36.8,7.8c9,5.2,15.8,11.6,20.5,19.2
	c4.7,7.6,7.8,15.3,9.2,23.1c1.4,7.8,2.1,14.3,2.1,19.5v214h93.5V382.5c0-24.2-3.7-46.2-11-66.1C623.9,296.5,613.2,279.3,599.3,264.8
	z M937.6,262.4c-27.9-28.4-63.5-42.6-106.9-42.6c-24.1,0-46.6,5-67.6,15c-21,10-39.4,23.7-55.2,41.3c-15.8,17.6-28.3,38-37.5,61.2
	c-9.2,23.3-13.8,47.9-13.8,74.1c0,26.6,4.6,51.5,13.8,74.8c9.2,23.3,22.1,43.6,38.6,60.9c16.5,17.3,36.2,31,59.1,40.9
	c22.9,10,48.3,15,76.1,15c27.4,0,52.5-5,75.4-14.9c22.9-10,42.6-23.6,59.1-40.9c16.5-17.3,29.4-37.6,38.6-60.8
	c9.2-23.2,13.8-48.1,13.8-74.6V65.4h-93.5V262.4z M930.1,452.5c-5,12.6-11.7,23.5-20.3,32.7c-8.5,9.2-18.5,16.6-29.8,22
	c-11.4,5.5-23.5,8.2-36.2,8.2c-12.8,0-24.9-2.6-36.3-7.8c-11.4-5.2-21.3-12.4-29.9-21.7c-8.5-9.2-15.3-20.1-20.3-32.7
	c-5-12.6-7.5-26.2-7.5-40.9c0-15.2,2.5-29.1,7.5-41.9c5-12.8,11.7-23.9,20.3-33.4c8.5-9.5,18.5-16.8,29.9-22
	c11.4-5.2,23.5-7.8,36.3-7.8c12.8,0,24.9,2.7,36.2,8.2c11.4,5.5,21.3,12.9,29.8,22.4c8.5,9.5,15.3,20.6,20.3,33.4
	c5,12.8,7.5,26.6,7.5,41.2C937.6,426.5,935.1,439.9,930.1,452.5z M1384.1,307.1c-11.1-18.9-24.6-34.9-40.4-48
	c-15.8-13-33.6-23-53.5-29.9c-19.8-6.9-40.6-10.3-62.3-10.3c-26,0-50.3,5.1-72.9,15.3c-22.7,10.2-42.5,23.9-59.5,41.2
	c-17,17.3-30.3,37.7-40,61.1c-9.7,23.5-14.5,48.4-14.5,75c0,26.6,4.8,51.4,14.5,74.6c9.7,23.2,23,43.5,40,60.8
	c17,17.3,36.8,30.9,59.5,40.9c22.7,9.9,47,14.9,72.9,14.9c45.8,0,83.9-11.5,114.4-34.5c30.4-23,51.1-53.2,62-90.6h-99.9
	c-8,14.7-19.1,25.5-33.3,32.3c-14.2,6.9-28.8,10.3-43.9,10.3c-16.1,0-30.7-3.4-43.9-10.3c-13.2-6.9-24.6-16.4-34-28.8l257.8-108.8
	C1402.9,347.9,1395.2,326.1,1384.1,307.1z M1128.1,406.6c0.5-15.6,3.4-29.9,8.9-42.6c5.4-12.8,12.5-23.8,21.2-33
	c8.7-9.3,19-16.5,30.8-21.7c11.8-5.2,24.6-7.8,38.3-7.8c15.1,0,28.8,2.8,41.1,8.5c12.3,5.7,22.7,13.8,31.2,24.2L1128.1,406.6z
	 M1530.9,225.4c-23.8,6.6-44,17.3-60.5,32c-16.5,14.7-29.2,32.7-37.9,54c-8.8,21.3-13.1,45-13.1,71.1v211.8h93.5V382.5
	c0-26,9.1-46.1,27.3-60.1c18.2-14,42.1-18.4,71.9-13.1v-88.1C1581.8,217.3,1554.7,218.7,1530.9,225.4z M1543,567.8h9.3v26.5h8.1
	v-26.5h9.3v-6.4H1543V567.8z M1593,583l-8.2-21.7H1574v32.9h7.6V571h0.2l8.4,23.3h5.5l8.4-23.3h0.2v23.3h7.6v-32.9h-10.8L1593,583z"
	/>
</svg>
